<svg viewBox="0 0 66 66" fill="none" xmlns="http://www.w3.org/2000/svg">
  <path fill-rule="evenodd" clip-rule="evenodd" d="M10.1262 10.1191L33 .6444l22.8738 9.4747L65.3514 33l-9.4776 22.8809L33 65.3556l-22.8738-9.4747L.6486 33l9.4776-22.8809zM33 0l23.3345 9.6655L66 33l-9.6655 23.3345L33 66 9.6655 56.3345 0 33 9.6655 9.6655 33 0zm-4.4328 26.4166c-.6192-.1284-1.3824-.1926-2.2896-.1926-1.4832 0-2.8224.2854-4.0176.8562-1.1808.5708-2.1096 1.3771-2.7864 2.4188-.6768 1.0275-1.0152 2.2119-1.0152 3.5533 0 1.3842.3312 2.6115.9936 3.6818.6624 1.0702 1.584 1.905 2.7648 2.5044 1.1952.5851 2.5488.8776 4.0608.8776.8496 0 1.5984-.0713 2.2464-.214.6624-.1428 1.368-.3925 2.1168-.7492.0864-.0571.144-.1071.1728-.1499.0288-.0428.0504-.1498.0648-.3211l.216-2.3545c0-.0429-.0504-.0643-.1512-.0643-.072 0-.108.0143-.108.0428-.3888 1.1702-.9504 2.0407-1.6848 2.6115-.7344.5708-1.692.8562-2.8728.8562-1.1088 0-2.1384-.2997-3.0888-.899-.936-.5994-1.6848-1.4128-2.2464-2.4402-.5472-1.0418-.8208-2.1834-.8208-3.4249 0-1.2986.252-2.4331.756-3.4034.504-.9847 1.2168-1.741 2.1384-2.269.9216-.528 1.9872-.792 3.1968-.792 2.304 0 3.7872 1.1915 4.4496 3.5747.0144.0428.0576.0642.1296.0642.0864-.0143.1296-.0428.1296-.0856l-.2592-2.5473c-.0288-.1712-.0504-.2782-.0648-.321-.0144-.0429-.072-.0928-.1728-.1499-.6192-.3139-1.2384-.5351-1.8576-.6636zm19.3006 13.2928c0-.0856-.0216-.1284-.0648-.1284-.5472 0-.9504-.0357-1.2096-.1071-.2592-.0713-.4392-.2069-.54-.4067-.0864-.214-.1296-.5351-.1296-.9632v-9.9107c0-.4281.0432-.7421.1296-.9418.1008-.1998.2808-.3354.54-.4067.2592-.0857.6624-.1285 1.2096-.1285.0432 0 .0648-.0428.0648-.1284 0-.0856-.0216-.1284-.0648-.1284l-1.0584.0214c-.6048.0285-1.1016.0428-1.4904.0428-.432 0-.9648-.0143-1.5984-.0428l-1.0152-.0214c-.0432 0-.0648.0428-.0648.1284 0 .0856.0216.1284.0648.1284.5616 0 .972.0428 1.2312.1285.2592.0856.432.2354.5184.4495.1008.1998.1512.5137.1512.9418v4.4095H36.247v-4.4095c0-.4281.0432-.742.1296-.9418.1008-.2141.2808-.3639.54-.4495.2736-.0857.684-.1285 1.2312-.1285.0288 0 .0432-.0428.0432-.1284 0-.0856-.0144-.1284-.0432-.1284l-1.0368.0214c-.6336.0285-1.1592.0428-1.5768.0428-.36 0-.8424-.0143-1.4472-.0428l-1.1016-.0214c-.0288 0-.0432.0428-.0432.1284 0 .0856.0144.1284.0432.1284.5472 0 .9504.0428 1.2096.1285.2592.0713.432.2069.5184.4067.1008.1997.1512.5137.1512.9418v9.9107c0 .4281-.0504.7492-.1512.9632-.0864.1998-.2664.3354-.54.4067-.2592.0714-.6624.1071-1.2096.1071-.0288 0-.0432.0428-.0432.1284 0 .0856.0144.1284.0432.1284.4608 0 .8208-.0071 1.08-.0214l1.4904-.0214 1.5552.0214c.2592.0143.612.0214 1.0584.0214.0288 0 .0432-.0428.0432-.1284 0-.0856-.0144-.1284-.0432-.1284-.5616 0-.972-.0357-1.2312-.1071-.2592-.0713-.4392-.2069-.54-.4067-.0864-.214-.1296-.5351-.1296-.9632v-5.0089h8.2944v5.0089c0 .4281-.0504.7492-.1512.9632-.0864.1998-.2592.3354-.5184.4067-.2592.0714-.6696.1071-1.2312.1071-.0432 0-.0648.0428-.0648.1284 0 .0856.0216.1284.0648.1284.432 0 .7704-.0071 1.0152-.0214l1.5984-.0214 1.4904.0214c.2592.0143.612.0214 1.0584.0214.0432 0 .0648-.0428.0648-.1284z" fill="#A87B62"/>
</svg>
